<svg width="315" height="50" xmlns="http://www.w3.org/2000/svg">
 <style type="text/css">.st0{fill:#EC0000;}</style>

 <g>
  <title>background</title>
  <rect fill="none" id="canvas_background" height="52" width="317" y="-1" x="-1"/>
 </g>
 <g>
  <title>Layer 1</title>
  <g id="svg_1">
   <path id="svg_2" d="m18.2,32.9c0.1,-1.2 0.1,-2.1 0.4,-3.1c1.4,0.8 3.2,1.2 4.8,1.2c2.3,0 3.6,-0.9 3.6,-2.5c0,-1.8 -1.6,-2.5 -3.1,-3.1l-1.7,-0.6c-2.3,-0.9 -4.1,-2.5 -4.1,-5.7c0,-3.2 2.1,-5.5 6.9,-5.5c1.7,0 3.5,0.3 5,0.9c-0.1,1.2 -0.2,1.9 -0.5,3c-1.5,-0.6 -3.2,-0.8 -4.4,-0.8c-2.5,0 -3.4,1 -3.4,2.3c0,1.7 1.4,2.5 2.7,3l1.7,0.6c2.4,0.9 4.6,2.5 4.6,5.7c0,3.4 -2.5,5.8 -7.3,5.8c-1.9,-0.1 -3.9,-0.4 -5.2,-1.2z" class="st0"/>
   <path id="svg_3" d="m43.7,29.7l-7.2,0l-1.2,3.8l-3.6,0l6.1,-19.3c1.1,-0.3 3,-0.4 4.6,-0.4l6.2,19.7l-3.9,0l-1,-3.8zm-0.9,-3l-2.7,-9.4l-2.8,9.4l5.5,0z" class="st0"/>
   <path id="svg_4" d="m70.9,33.6l-3.6,0l-0.5,-7.8c-0.1,-2.1 -0.3,-4.3 -0.3,-6.5c-0.8,2.6 -1.6,5.3 -2.5,7.8l-2.2,6.5l-3.1,0l-2.3,-6.6c-0.9,-2.6 -1.7,-5.1 -2.4,-7.5c-0.1,2.2 -0.1,4.6 -0.3,6.7l-0.5,7.4l-3.2,0l1.4,-19.3c1.2,-0.3 3.2,-0.5 4.5,-0.5l4.6,14.8l4.6,-14.3c1.4,-0.4 3.3,-0.5 4.6,-0.5l1.2,19.8z" class="st0"/>
   <path id="svg_5" d="m86.6,28.9l-7.9,0l-1.5,4.7l-2.4,0l6.3,-19.3c0.7,-0.2 2.1,-0.3 3.1,-0.3l6.4,19.7l-2.5,0l-1.5,-4.8zm-0.6,-2.2l-3.2,-10.4l-3.3,10.4l6.5,0z" class="st0"/>
   <path id="svg_6" d="m91.8,32.9c0,-0.8 0.1,-1.4 0.3,-2c1.2,0.7 2.6,1 3.8,1c2,0 3,-0.6 3,-1.9c0,-1.2 -0.7,-1.7 -2.3,-2.2l-1.2,-0.5c-2.1,-0.8 -3.6,-1.9 -3.6,-4.2c0,-2.4 1.7,-3.9 5,-3.9c1.4,0 2.8,0.2 4,0.6c-0.1,0.6 -0.1,1.3 -0.3,2c-1.2,-0.4 -2.2,-0.6 -3.5,-0.6c-1.9,0 -2.8,0.6 -2.8,1.8c0,1.1 0.8,1.7 2.4,2.3l1.2,0.5c2.4,0.9 3.6,1.9 3.6,4c0,2.4 -1.8,4.1 -5.4,4.1c-1.6,0 -3.1,-0.4 -4.2,-1z" class="st0"/>
   <path id="svg_7" d="m103.4,32.9c0,-0.8 0.1,-1.4 0.3,-2c1.2,0.7 2.6,1 3.8,1c2,0 3,-0.6 3,-1.9c0,-1.2 -0.7,-1.7 -2.3,-2.2l-1.2,-0.5c-2.1,-0.8 -3.6,-1.9 -3.6,-4.2c0,-2.4 1.7,-3.9 5,-3.9c1.4,0 2.8,0.2 4,0.6c-0.1,0.6 -0.1,1.3 -0.3,2c-1.2,-0.4 -2.2,-0.6 -3.5,-0.6c-1.9,0 -2.8,0.6 -2.8,1.8c0,1.1 0.8,1.7 2.4,2.3l1.2,0.5c2.4,0.9 3.6,1.9 3.6,4c0,2.4 -1.8,4.1 -5.4,4.1c-1.6,0 -3.1,-0.4 -4.2,-1z" class="st0"/>
   <path id="svg_8" d="m126.6,27.3l-9.1,0c0.3,3.3 1.8,4.6 4.6,4.6c1.4,0 2.8,-0.3 4.2,-1.2c-0.1,0.6 -0.2,1.6 -0.4,2.2c-1.1,0.7 -2.6,1 -4.1,1c-4.6,0 -6.8,-2.8 -6.8,-7.4c0,-4 1.9,-7.2 6.1,-7.2c3.9,0 5.7,2.6 5.7,6.3c-0.1,0.5 -0.1,1.3 -0.2,1.7zm-9.1,-1.9l6.8,0c0,-2.5 -0.9,-4.1 -3.3,-4.1c-2.1,-0.1 -3.3,1.4 -3.5,4.1z" class="st0"/>
   <path id="svg_9" d="m134.4,31.8c0.7,0 1.4,-0.2 2.1,-0.5c-0.1,0.8 -0.2,1.4 -0.3,2.1c-0.8,0.4 -1.5,0.5 -2.3,0.5c-2.5,0 -4.1,-1.3 -4.1,-4.3l0,-13.8c0.8,-0.3 1.6,-0.4 2.4,-0.4l0,4.2l4.3,0c-0.1,0.7 -0.1,1.4 -0.2,2l-4.1,0l0,7.7c0,1.8 0.7,2.5 2.2,2.5z" class="st0"/>
   <path id="svg_10" d="m163.4,33.6l-2.4,0l-0.5,-8.4c-0.2,-2.7 -0.3,-5.2 -0.3,-7.8c-0.9,2.9 -2,6.1 -3.2,9l-2.8,7.2l-1.8,0l-2.8,-7.4c-1.2,-3.1 -2.2,-6.1 -3,-8.7c0,2.5 -0.2,5.4 -0.3,8.1l-0.5,8l-2.3,0l1.2,-19.3c0.8,-0.3 2.1,-0.4 3,-0.4l5.7,16.3l5.7,-15.9c1,-0.3 2.3,-0.3 3.1,-0.3l1.2,19.6z" class="st0"/>
   <path id="svg_11" d="m177.8,20l0,13.6l-2.2,0l-0.1,-1.9c-0.8,1.4 -1.9,2.2 -3.7,2.2c-3.3,0 -5.4,-2.3 -5.4,-7.3c0,-4.6 2,-7.4 6.7,-7.4c1.9,0 3.3,0.3 4.7,0.8zm-2.5,10.6l0,-9.1c-0.7,-0.2 -1.4,-0.3 -2.4,-0.3c-3.1,0 -4.2,2.2 -4.2,5.3c0,3.7 1.3,5.3 3.6,5.3c1.3,0.1 2.3,-0.4 3,-1.2z" class="st0"/>
   <path id="svg_12" d="m192.6,24.2l0,9.4l-2.4,0l0,-9.1c0,-2.3 -0.9,-3.3 -3.4,-3.3c-0.9,0 -1.9,0.1 -2.8,0.4l0,12l-2.4,0l0,-13.5c1.8,-0.5 3.5,-0.8 5.2,-0.8c4.4,-0.1 5.8,1.9 5.8,4.9z" class="st0"/>
   <path id="svg_13" d="m206.9,20l0,13.6l-2.2,0l-0.1,-1.9c-0.8,1.4 -1.9,2.2 -3.7,2.2c-3.3,0 -5.4,-2.3 -5.4,-7.3c0,-4.6 2,-7.4 6.7,-7.4c1.9,0 3.4,0.3 4.7,0.8zm-2.4,10.6l0,-9.1c-0.7,-0.2 -1.4,-0.3 -2.4,-0.3c-3.1,0 -4.2,2.2 -4.2,5.3c0,3.7 1.3,5.3 3.6,5.3c1.3,0.1 2.2,-0.4 3,-1.2z" class="st0"/>
   <path id="svg_14" d="m221.6,20l0,13.3c0,4.1 -2,6.5 -6.5,6.5c-1.4,0 -2.8,-0.3 -4,-0.9c0,-0.6 0.1,-1.5 0.2,-2.1c1.2,0.6 2.7,0.9 3.8,0.9c2.7,0 4.1,-1.5 4.1,-4.2l0,-1.8c-0.7,1.3 -1.9,2.1 -3.7,2.1c-3.3,0 -5.6,-2.4 -5.6,-7.2c0,-4.6 2,-7.4 6.8,-7.4c2,0 3.5,0.3 4.9,0.8zm-2.5,10.6l0,-9c-0.7,-0.2 -1.5,-0.3 -2.4,-0.3c-3.2,0 -4.3,2.2 -4.3,5.4c0,3.5 1.3,5.3 3.8,5.3c1.2,-0.1 2.2,-0.6 2.9,-1.4z" class="st0"/>
   <path id="svg_15" d="m236.1,27.3l-9.1,0c0.3,3.3 1.8,4.6 4.6,4.6c1.4,0 2.8,-0.3 4.2,-1.2c-0.1,0.6 -0.2,1.6 -0.4,2.2c-1.1,0.7 -2.6,1 -4.1,1c-4.6,0 -6.8,-2.8 -6.8,-7.4c0,-4 1.9,-7.2 6.1,-7.2c3.9,0 5.7,2.6 5.7,6.3c0,0.5 -0.1,1.3 -0.2,1.7zm-9.1,-1.9l6.8,0c0,-2.5 -0.9,-4.1 -3.3,-4.1c-2.1,-0.1 -3.3,1.4 -3.5,4.1z" class="st0"/>
   <path id="svg_16" d="m259,24.1l0,9.5l-2.4,0l0,-9.1c0,-2.3 -1,-3.3 -3.3,-3.3c-1.1,0 -2.2,0.3 -3.2,0.8c0.2,0.6 0.3,1.4 0.3,2.1l0,9.4l-2.4,0l0,-9.1c0,-2.3 -0.9,-3.3 -3.4,-3.3c-0.9,0 -1.9,0.1 -2.8,0.4l0,12l-2.4,0l0,-13.5c1.8,-0.5 3.5,-0.8 5.2,-0.8c2.1,0 3.6,0.5 4.5,1.4c1.4,-1 2.9,-1.4 4.7,-1.4c3.5,0 5.2,1.9 5.2,4.9z" class="st0"/>
   <path id="svg_17" d="m273.4,27.3l-9.1,0c0.3,3.3 1.8,4.6 4.6,4.6c1.4,0 2.8,-0.3 4.2,-1.2c-0.1,0.6 -0.2,1.6 -0.4,2.2c-1.1,0.7 -2.6,1 -4.1,1c-4.6,0 -6.8,-2.8 -6.8,-7.4c0,-4 1.9,-7.2 6.1,-7.2c3.9,0 5.7,2.6 5.7,6.3c-0.1,0.5 -0.1,1.3 -0.2,1.7zm-9.1,-1.9l6.8,0c0,-2.5 -0.9,-4.1 -3.3,-4.1c-2.1,-0.1 -3.3,1.4 -3.5,4.1z" class="st0"/>
   <path id="svg_18" d="m287.7,24.2l0,9.4l-2.4,0l0,-9.1c0,-2.3 -0.9,-3.3 -3.4,-3.3c-0.9,0 -1.9,0.1 -2.8,0.4l0,12l-2.4,0l0,-13.5c1.8,-0.5 3.5,-0.8 5.2,-0.8c4.4,-0.1 5.8,1.9 5.8,4.9z" class="st0"/>
   <path id="svg_19" d="m295.8,31.8c0.7,0 1.4,-0.2 2.1,-0.5c-0.1,0.8 -0.2,1.4 -0.3,2.1c-0.8,0.4 -1.5,0.5 -2.3,0.5c-2.5,0 -4.1,-1.3 -4.1,-4.3l0,-13.8c0.8,-0.3 1.6,-0.4 2.4,-0.4l0,4.2l4.3,0c-0.1,0.7 -0.1,1.4 -0.2,2l-4.1,0l0,7.7c0.1,1.8 0.8,2.5 2.2,2.5z" class="st0"/>
  </g>
 </g>
</svg>